<?xml version="1.0" encoding="UTF-8" standalone="no"?>
<!-- Created with Inkscape (http://www.inkscape.org/) -->

<svg
   xmlns:dc="http://purl.org/dc/elements/1.1/"
   xmlns:cc="http://creativecommons.org/ns#"
   xmlns:rdf="http://www.w3.org/1999/02/22-rdf-syntax-ns#"
   xmlns:svg="http://www.w3.org/2000/svg"
   xmlns="http://www.w3.org/2000/svg"
   xmlns:sodipodi="http://sodipodi.sourceforge.net/DTD/sodipodi-0.dtd"
   xmlns:inkscape="http://www.inkscape.org/namespaces/inkscape"
   width="132.29167mm"
   height="169.25864mm"
   viewBox="0 0 132.29167 169.25864"
   id="svg3937"
   version="1.1"
   inkscape:version="0.91+devel r"
   sodipodi:docname="vivid_projects_logo.svg">
  <defs
     id="defs3939" />
  <sodipodi:namedview
     id="base"
     pagecolor="#ffffff"
     bordercolor="#666666"
     borderopacity="1.0"
     inkscape:pageopacity="0.0"
     inkscape:pageshadow="2"
     inkscape:zoom="0.35"
     inkscape:cx="272.03901"
     inkscape:cy="-523.71323"
     inkscape:document-units="mm"
     inkscape:current-layer="layer1"
     showgrid="false"
     fit-margin-top="0"
     fit-margin-left="0"
     fit-margin-right="0"
     fit-margin-bottom="0"
     inkscape:window-width="1867"
     inkscape:window-height="1056"
     inkscape:window-x="53"
     inkscape:window-y="24"
     inkscape:window-maximized="1" />
  <metadata
     id="metadata3942">
    <rdf:RDF>
      <cc:Work
         rdf:about="">
        <dc:format>image/svg+xml</dc:format>
        <dc:type
           rdf:resource="http://purl.org/dc/dcmitype/StillImage" />
        <dc:title></dc:title>
      </cc:Work>
    </rdf:RDF>
  </metadata>
  <g
     inkscape:label="Layer 1"
     inkscape:groupmode="layer"
     id="layer1"
     transform="translate(-33.856344,158.99109)">
    <path
       inkscape:connector-curvature="0"
       id="path66"
       style="fill:#231f20;fill-opacity:1;fill-rule:nonzero;stroke:none;stroke-width:1.32973683"
       d="m 61.851294,-3.4340718 c 0,-4.6062117 -1.220698,-8.2390502 -3.662095,-10.8958642 -2.441397,-2.658149 -5.787012,-3.986556 -10.039514,-3.986556 -4.450628,0 -7.943847,1.27921 -10.483646,3.837622 -2.539795,2.561073 -3.809695,6.0649362 -3.809695,10.5129039 0,4.29239216 1.319097,7.737736 3.957298,10.3360467 2.638198,2.5983031 6.142053,3.8974614 10.5129,3.8974614 4.8429,0 8.465105,-1.4760117 10.866611,-4.4293633 0.945443,-1.1808039 1.712698,-2.7751527 2.303104,-4.7830614 l -8.680525,0 c -1.025225,1.6528677 -2.481288,2.4799611 -4.370844,2.4799611 -3.662095,0 -5.493143,-1.9879538 -5.493143,-5.9651958 l 18.899549,0 0,-1.0039544 z m -18.662858,-4.489189 c 0.510621,-2.8735702 2.184759,-4.3110122 5.019757,-4.3110122 2.873562,0 4.626155,1.437442 5.256452,4.3110122 l -10.276209,0 z M 84.11641,0.5817343 c -1.4175,1.1821345 -2.953345,1.7725364 -4.606208,1.7725364 -1.812432,0 -3.299079,-0.6103492 -4.459939,-1.83104776 -1.160861,-1.22069853 -1.741953,-2.75521664 -1.741953,-4.60753854 0,-1.8895592 0.581092,-3.4440133 1.741953,-4.6647119 1.16086,-1.2206985 2.647507,-1.8310475 4.459939,-1.8310475 1.495954,0 3.030472,0.570454 4.606208,1.712698 l 0,-8.032946 c -1.850992,-0.982673 -3.858897,-1.476007 -6.023708,-1.476007 -4.055697,0 -7.43323,1.368298 -10.128605,4.104898 -2.698036,2.7366 -4.04639,6.1713103 -4.04639,10.3054659 0,3.97724576 1.337713,7.3148772 4.015806,10.0115862 2.678088,2.6967054 5.985147,4.0450609 9.922498,4.0450609 2.086356,0 4.172712,-0.4933264 6.260399,-1.4760116 l 0,-8.0329351 z m 22.79701,-18.1309633 -6.37875,0 0,-8.031616 -9.035562,0 0,8.031616 -4.134151,0 0,7.8547586 4.134151,0 0,18.8995456 9.035562,0 0,-18.8995456 6.37875,0 0,-7.8547586 z m 21.08298,11.9303952 c -1.0239,-0.8270934 -2.74591,-1.5650987 -5.16736,-2.2153388 -2.42145,-0.6489133 -3.63151,-1.3882454 -3.63151,-2.2140124 0,-1.300484 0.92417,-1.949397 2.77516,-1.949397 1.53585,0 3.16876,0.453443 4.90274,1.357669 l 3.01186,-6.142061 c -2.52119,-1.140913 -5.25646,-1.712698 -8.2098,-1.712698 -3.46529,0 -6.22184,0.866988 -8.2683,2.59963 -2.0478,1.732653 -3.07037,4.074321 -3.07037,7.027665 0,2.1262469 0.84571,3.8788398 2.53847,5.2564519 1.2207,0.9839995 2.85494,1.7326456 4.90274,2.2445889 1.92812,0.47206373 3.05042,0.86566126 3.36557,1.18080767 0.31515,0.31515394 0.47338,0.7486461 0.47338,1.29915723 0,1.339048 -0.9255,2.0078973 -2.77649,2.0078973 -2.2047,0 -4.60621,-0.8856048 -7.20451,-2.65814122 l -3.24855,6.67395112 c 3.34561,2.047792 6.73245,3.0716951 10.15786,3.0716951 3.70066,0 6.6447,-0.9161933 8.82945,-2.7459079 2.18476,-1.8310478 3.27781,-4.2830857 3.27781,-7.35344877 0,-2.40150623 -0.88561,-4.31100133 -2.65815,-5.72850813" />
    <path
       inkscape:connector-curvature="0"
       id="path70"
       style="fill:#231f20;fill-opacity:1;fill-rule:nonzero;stroke:none;stroke-width:1.32973683"
       d="m 61.674173,-57.114619 c -2.479957,-2.736603 -5.531703,-4.104901 -9.153908,-4.104901 -2.914784,0 -5.197941,0.885604 -6.850805,2.658145 -0.355033,0.393605 -0.670187,0.787198 -0.945443,1.180804 l 0,-2.953345 -8.977055,0 0,40.220553 8.977055,0 0,-16.064551 c 1.219368,1.299157 2.558416,2.224653 4.015806,2.775164 1.180808,0.433488 2.481288,0.65024 3.898788,0.65024 3.620874,0 6.652677,-1.358992 9.094074,-4.075644 2.441397,-2.716653 3.662095,-6.082223 3.662095,-10.099359 0,-4.054363 -1.240646,-7.450509 -3.720607,-10.187106 m -7.293607,14.439607 c -1.122296,1.182142 -2.490594,1.772544 -4.104898,1.772544 -1.614299,0 -2.993235,-0.590402 -4.134151,-1.772544 -1.142244,-1.180808 -1.712702,-2.616924 -1.712702,-4.311001 0,-1.692763 0.570458,-3.130205 1.712702,-4.311009 1.140916,-1.180808 2.519852,-1.772537 4.134151,-1.772537 1.614304,0 2.982602,0.591729 4.104898,1.772537 1.122301,1.180804 1.683449,2.618246 1.683449,4.311009 0,1.694077 -0.561148,3.130193 -1.683449,4.311001 m 33.988077,-17.954106 -1.771209,-0.118358 c -2.206033,0 -4.095592,0.591733 -5.669997,1.772537 -0.945443,0.708751 -1.812431,1.712706 -2.598307,3.011852 l 0,-4.37084 -9.036893,0 0,26.754304 9.036893,0 0,-11.457016 c 0,-5.039696 2.086356,-7.559552 6.259072,-7.559552 1.574409,0 2.834998,0.138297 3.780441,0.413553 l 0,-8.446492 z m 27.550817,3.308385 c -2.85494,-2.678089 -6.52635,-4.017133 -11.01421,-4.017133 -4.48919,0 -8.160594,1.339044 -11.01554,4.017133 -2.854946,2.676761 -4.281751,6.122113 -4.281751,10.33472 0,4.213933 1.426805,7.668591 4.281751,10.365296 2.854946,2.696706 6.52635,4.04506 11.01554,4.04506 4.48786,0 8.15927,-1.348354 11.01421,-4.04506 2.85362,-2.696705 4.28176,-6.151363 4.28176,-10.365296 0,-4.212607 -1.42814,-7.657959 -4.28176,-10.33472 m -6.91064,14.645721 c -1.12097,1.182142 -2.4906,1.772544 -4.10357,1.772544 -1.61563,0 -2.9826,-0.590402 -4.1049,-1.772544 -1.122294,-1.180808 -1.683442,-2.616924 -1.683442,-4.311001 0,-1.692763 0.561148,-3.130205 1.683442,-4.311009 1.1223,-1.180808 2.48927,-1.772537 4.1049,-1.772537 1.61297,0 2.9826,0.591729 4.10357,1.772537 1.1223,1.180804 1.68345,2.618246 1.68345,4.311009 0,1.694077 -0.56115,3.130193 -1.68345,4.311001 m 23.35816,-29.211656 c -1.0239,-1.023898 -2.28316,-1.535849 -3.77912,-1.535849 -1.45739,0 -2.70734,0.511951 -3.74985,1.535849 -1.04384,1.023898 -1.5651,2.283157 -1.5651,3.779111 0,1.457394 0.52126,2.707345 1.5651,3.749856 1.04251,1.043845 2.29246,1.565102 3.74985,1.565102 1.49596,0 2.75522,-0.521257 3.77912,-1.565102 1.0239,-1.042511 1.53584,-2.292462 1.53584,-3.749856 0,-1.495954 -0.51194,-2.755213 -1.53584,-3.779111 m 0.70875,11.552752 -8.97705,0 0,40.219226 8.97705,0 0,-40.219226 z" />
    <path
       inkscape:connector-curvature="0"
       id="path74"
       style="fill:#231f20;fill-opacity:1;fill-rule:nonzero;stroke:none;stroke-width:1.32973683"
       d="m 111.51843,-103.11714 -6.14205,13.701614 -6.08355,-13.701614 -10.099351,0 13.111211,26.75431 6.02503,0 13.22823,-26.75431 -10.03952,0 z m 20.37556,-11.55408 c -1.0239,-1.02257 -2.28448,-1.53585 -3.78044,-1.53585 -1.45606,0 -2.70735,0.51328 -3.74986,1.53585 -1.04384,1.02523 -1.5651,2.28449 -1.5651,3.78044 0,1.45739 0.52126,2.70735 1.5651,3.74986 1.04251,1.04384 2.2938,1.5651 3.74986,1.5651 1.49596,0 2.75654,-0.52126 3.78044,-1.5651 1.02257,-1.04251 1.53585,-2.29247 1.53585,-3.74986 0,-1.49595 -0.51328,-2.75521 -1.53585,-3.78044 m 0.70875,11.55408 -8.97705,0 0,26.75431 8.97705,0 0,-26.75431 z m 33.54527,-16.53661 -8.97705,0 0,19.13492 c -1.1808,-1.33772 -2.51985,-2.26321 -4.01581,-2.77516 -1.33904,-0.47339 -2.63819,-0.70875 -3.89878,-0.70875 -3.58231,0 -6.60481,1.3683 -9.06482,4.104895 -2.46134,2.7366 -3.69135,6.092855 -3.69135,10.068771 0,4.055697 1.23932,7.46248 3.7206,10.217697 2.47996,2.756543 5.53171,4.134152 9.15392,4.134152 2.91345,0 5.21655,-0.905553 6.91063,-2.716653 0.35372,-0.472056 0.64892,-0.845714 0.88561,-1.122296 l 0,2.953344 8.97705,0 0,-43.29092 z m -10.3653,34.254027 c -1.12229,1.182138 -2.49059,1.77254 -4.10489,1.77254 -1.61431,0 -2.99191,-0.590402 -4.13415,-1.77254 -1.14225,-1.180804 -1.71271,-2.61692 -1.71271,-4.311006 0,-1.692754 0.57046,-3.139507 1.71271,-4.340262 1.14224,-1.200752 2.51984,-1.801794 4.13415,-1.801794 1.57441,0 2.93339,0.601042 4.07564,1.801794 1.14092,1.200755 1.7127,2.647508 1.7127,4.340262 0,1.694086 -0.56115,3.130202 -1.68345,4.311006" />
    <path
       inkscape:connector-curvature="0"
       id="path78"
       style="fill:#231f20;fill-opacity:1;fill-rule:nonzero;stroke:none;stroke-width:1.32973683"
       d="m 111.51843,-145.90116 -6.14205,13.70161 -6.08355,-13.70161 -10.099351,0 13.111211,26.75431 6.02503,0 13.22823,-26.75431 -10.03952,0 z m 20.37556,-11.55408 c -1.0239,-1.02257 -2.28448,-1.53585 -3.78044,-1.53585 -1.45606,0 -2.70735,0.51328 -3.74986,1.53585 -1.04384,1.02523 -1.5651,2.28449 -1.5651,3.78044 0,1.45739 0.52126,2.70735 1.5651,3.74986 1.04251,1.04384 2.2938,1.5651 3.74986,1.5651 1.49596,0 2.75654,-0.52126 3.78044,-1.5651 1.02257,-1.04251 1.53585,-2.29247 1.53585,-3.74986 0,-1.49595 -0.51328,-2.75521 -1.53585,-3.78044 m 0.70875,11.55408 -8.97705,0 0,26.75431 8.97705,0 0,-26.75431 z" />
  </g>
</svg>
